<?xml version="1.0" encoding="UTF-8"?>
<svg id="Layer_1" xmlns="http://www.w3.org/2000/svg" viewBox="0 0 44 44">
  <defs>
    <style>
      .cls-1 {
        fill: #fff;
        stroke: #ccc;
        stroke-linecap: round;
        stroke-linejoin: round;
        stroke-width: 2px;
      }

      .cls-2 {
        fill: none;
      }
    </style>
  </defs>
  <rect class="cls-2" width="44" height="44"/>
  <g>
    <polygon class="cls-1" points="14.55 19.66 5.95 35.85 13.76 35.13 17.53 42 26.13 25.81 14.55 19.66"/>
    <polygon class="cls-1" points="30.62 19.66 39.22 35.85 31.41 35.13 27.64 42 19.04 25.81 30.62 19.66"/>
    <circle class="cls-1" cx="22.58" cy="17.01" r="14.36"/>
    <path class="cls-1" d="M30.29,15h-5.37l-1.66-5.1c-.1-.29-.37-.49-.68-.49s-.58.2-.67.49l-1.66,5.1h-5.37c-.31,0-.59.19-.69.49-.1.3.01.62.27.8l4.34,3.15-1.65,5.11c-.09.29.01.61.26.79.25.18.58.18.83,0l4.34-3.15,4.35,3.15c.25.16.57.15.81-.02s.34-.48.26-.77l-1.66-5.11,4.35-3.15c.25-.18.36-.5.27-.79s-.36-.5-.67-.5h0Z"/>
  </g>
</svg>