<?xml version="1.0" encoding="UTF-8"?>
<svg id="Layer_1" xmlns="http://www.w3.org/2000/svg" viewBox="0 0 36 40">
  <defs>
    <style>
      .cls-1 {
        fill: #fff;
        stroke: #ccc;
        stroke-linecap: round;
        stroke-linejoin: round;
        stroke-width: 2px;
      }
    </style>
  </defs>
  <path class="cls-1" d="M34.55,26.75c-.01,6.76-5.49,12.24-12.25,12.25h-8.9c-6.76-.01-12.24-5.49-12.25-12.25,0-.3.11-.58.32-.79.21-.21.49-.32.79-.32h4.46c4.79,0,9.14,2.81,11.13,7.17,1.99-4.36,6.34-7.16,11.13-7.17h4.46c.3,0,.58.11.79.32.21.21.32.49.32.79h0Z"/>
  <line class="cls-1" x1="17.85" y1="37.59" x2="17.85" y2="19"/>
  <path class="cls-1" d="M17.85,1c-6.77,0-12.25,5.48-12.25,12.25s5.48,12.25,12.25,12.25,12.25-5.48,12.25-12.25c-.01-6.76-5.49-12.24-12.25-12.25Z"/>
  <path class="cls-1" d="M17.85,5.75c-4.14,0-7.5,3.36-7.5,7.5s3.36,7.5,7.5,7.5,7.5-3.36,7.5-7.5c0-4.14-3.36-7.49-7.5-7.5h0Z"/>
</svg>