<?xml version="1.0" encoding="UTF-8"?>
<svg id="Layer_1" xmlns="http://www.w3.org/2000/svg" viewBox="0 0 43 40">
  <defs>
    <style>
      .cls-1 {
        fill: none;
        stroke: #ccc;
        stroke-linecap: round;
        stroke-linejoin: round;
        stroke-width: 2px;
      }
    </style>
  </defs>
  <path class="cls-1" d="M31.04,38.22H11.17c0-2.93,2.38-5.31,5.31-5.31h9.29c2.92.02,5.27,2.39,5.27,5.31"/>
  <line class="cls-1" x1="21.12" y1="32.78" x2="21.12" y2="12.34"/>
  <line class="cls-1" x1="21.12" y1="5.7" x2="21.12" y2="2.22"/>
  <line class="cls-1" x1="17.95" y1="10.02" x2="5.37" y2="15.5"/>
  <line class="cls-1" x1="36.87" y1="1.78" x2="24.01" y2="7.38"/>
  <path class="cls-1" d="M24.44,9c.01,1.34-.8,2.56-2.04,3.08-.41.17-.85.26-1.28.26-.86,0-1.71-.34-2.34-.97-.39-.38-.67-.85-.83-1.35-.22-.73-.2-1.53.1-2.27.51-1.24,1.73-2.05,3.07-2.05,1.24,0,2.32.68,2.89,1.68.27.48.43,1.03.43,1.62Z"/>
  <line class="cls-1" x1="1.64" y1="23.41" x2="5.21" y2="15.5"/>
  <line class="cls-1" x1="8.78" y1="23.41" x2="5.08" y2="15.62"/>
  <line class="cls-1" x1="33.3" y1="10.13" x2="36.87" y2="2.22"/>
  <line class="cls-1" x1="40.44" y1="10.13" x2="36.74" y2="2.35"/>
  <path class="cls-1" d="M.96,23.67c0,2.35,1.9,4.25,4.25,4.25s4.25-1.9,4.25-4.25H.96ZM32.62,10.39c0,2.35,1.9,4.25,4.25,4.25s4.25-1.9,4.25-4.25h-8.5Z"/>
</svg>