<?xml version="1.0" encoding="UTF-8"?>
<svg id="Layer_1" xmlns="http://www.w3.org/2000/svg" viewBox="0 0 41 37">
  <defs>
    <style>
      .cls-1 {
        fill: #fff;
        stroke: #ccc;
        stroke-linecap: round;
        stroke-linejoin: round;
        stroke-width: 2px;
      }

      .cls-2 {
        fill: none;
      }
    </style>
  </defs>
  <rect class="cls-2" x="-1.78" y="-3" width="44" height="44"/>
  <g>
    <rect class="cls-1" x="10.22" y="1" width="21" height="11" rx="5.36" ry="5.36"/>
    <path class="cls-1" d="M39.22,8.39v24.12c0,1.82-1.47,3.29-3.29,3.29H5.1c-1.82,0-3.29-1.47-3.29-3.29V8.39c0-.29.12-.57.33-.77l5.58,12.57h25.59l5.58-12.57c.21.2.33.48.33.77Z"/>
    <path class="cls-1" d="M38.89,7.62l-3.4,12.57c-.39,1.44-1.7,2.45-3.19,2.45H8.7c-1.5,0-2.8-1-3.19-2.45L2.12,7.62c.2-.22.48-.34.77-.33h35.22c.29,0,.57.12.78.33Z"/>
    <path class="cls-1" d="M26,20.45v4.4c0,.29-.11.57-.32.78s-.49.32-.78.32h-8.77c-.29,0-.57-.11-.78-.32-.21-.21-.32-.49-.32-.78v-4.4c0-.29.11-.58.32-.79s.49-.33.78-.32h8.77c.29,0,.58.11.78.32.21.21.32.49.32.79h0Z"/>
  </g>
</svg>