<?xml version="1.0" encoding="UTF-8"?>
<svg id="Layer_1" xmlns="http://www.w3.org/2000/svg" viewBox="0 0 36 42">
  <defs>
    <style>
      .cls-1 {
        fill: #fff;
        stroke: #ccc;
        stroke-linecap: round;
        stroke-linejoin: round;
        stroke-width: 2px;
      }
    </style>
  </defs>
  <path class="cls-1" d="M32.85,27.52c-1,2.76-2.61,5.26-4.7,7.32-2.62,2.46-5.75,4.31-9.17,5.43-.12.04-.25.08-.38.11-.17.01-.34.01-.51,0h0c-.18.01-.37.01-.55,0l-.37-.1c-3.42-1.12-6.56-2.98-9.19-5.44-2.11-2.05-3.72-4.55-4.73-7.31-1.9-5.15-1.79-10.82-1.7-15.37v-1.28c.06-2.14,1.74-3.88,3.88-4,4.09-.09,7.99-1.74,10.9-4.62h0c.46-.44,1.08-.68,1.72-.68.61,0,1.2.24,1.65.66h0c2.92,2.88,6.84,4.53,10.94,4.61,2.14.12,3.82,1.86,3.88,4v1.21h0c.12,4.62.23,10.3-1.67,15.46Z"/>
  <path class="cls-1" d="M18.05,11.32h0c-5.35,0-9.68,4.33-9.68,9.68s4.33,9.68,9.68,9.68h0c5.35,0,9.68-4.33,9.68-9.68s-4.33-9.68-9.68-9.68Z"/>
  <polyline class="cls-1" points="13.05 21.5 16.05 24.5 23.05 17.5"/>
</svg>